HIERARCHY
ROOT Hips
{
	OFFSET -0.001795 -0.223333 0.028219
	CHANNELS 6 Xposition Yposition Zposition Zrotation Yrotation Xrotation 
	JOINT LeftUpLeg
	{
		OFFSET 0.069520 -0.091406 -0.006815
		CHANNELS 3 Zrotation Yrotation Xrotation
		JOINT LeftLeg
		{
			OFFSET 0.034277 -0.375199 -0.004496
			CHANNELS 3 Zrotation Yrotation Xrotation
			JOINT LeftFoot
			{
				OFFSET -0.013596 -0.397961 -0.043693
				CHANNELS 3 Zrotation Yrotation Xrotation
				JOINT LeftToe
				{
					OFFSET 0.026358 -0.055791 0.119288
					CHANNELS 3 Zrotation Yrotation Xrotation
					End Site
					{
						OFFSET 0.000000 0.000000 0.000000
					}
				}
			}
		}
	}
	JOINT RightUpLeg
	{
		OFFSET -0.067670 -0.090522 -0.004320
		CHANNELS 3 Zrotation Yrotation Xrotation
		JOINT RightLeg
		{
			OFFSET -0.038290 -0.382569 -0.008850
			CHANNELS 3 Zrotation Yrotation Xrotation
			JOINT RightFoot
			{
				OFFSET 0.015774 -0.398415 -0.042312
				CHANNELS 3 Zrotation Yrotation Xrotation
				JOINT RightToe
				{
					OFFSET -0.025372 -0.048144 0.123348
					CHANNELS 3 Zrotation Yrotation Xrotation
					End Site
					{
						OFFSET 0.000000 0.000000 0.000000
					}
				}
			}
		}
	}
	JOINT Spine
	{
		OFFSET -0.002533 0.108963 -0.026696
		CHANNELS 3 Zrotation Yrotation Xrotation
		JOINT Spine1
		{
			OFFSET 0.005487 0.135180 0.001092
			CHANNELS 3 Zrotation Yrotation Xrotation
			JOINT Spine2
			{
				OFFSET 0.001457 0.052922 0.025425
				CHANNELS 3 Zrotation Yrotation Xrotation
				JOINT Neck
				{
					OFFSET -0.002778 0.213870 -0.042857
					CHANNELS 3 Zrotation Yrotation Xrotation
					JOINT Head
					{
						OFFSET 0.005152 0.064970 0.051349
						CHANNELS 3 Zrotation Yrotation Xrotation
						End Site
						{
							OFFSET 0.000000 0.000000 0.000000
						}
					}
				}
				JOINT LeftShoulder
				{
					OFFSET 0.078845 0.121749 -0.034090
					CHANNELS 3 Zrotation Yrotation Xrotation
					JOINT LeftArm
					{
						OFFSET 0.090977 0.030469 -0.008868
						CHANNELS 3 Zrotation Yrotation Xrotation
						JOINT LeftForeArm
						{
							OFFSET 0.259612 -0.012772 -0.027456
							CHANNELS 3 Zrotation Yrotation Xrotation
							JOINT LeftHand
							{
								OFFSET 0.249234 0.008986 -0.001171
								CHANNELS 3 Zrotation Yrotation Xrotation
								End Site
								{
									OFFSET 0.000000 0.000000 0.000000
								}
							}
						}
					}
				}
				JOINT RightShoulder
				{
					OFFSET -0.081759 0.118833 -0.038615
					CHANNELS 3 Zrotation Yrotation Xrotation
					JOINT RightArm
					{
						OFFSET -0.096012 0.032551 -0.009143
						CHANNELS 3 Zrotation Yrotation Xrotation
						JOINT RightForeArm
						{
							OFFSET -0.253742 -0.013329 -0.021401
							CHANNELS 3 Zrotation Yrotation Xrotation
							JOINT RightHand
							{
								OFFSET -0.255298 0.007772 -0.005559
								CHANNELS 3 Zrotation Yrotation Xrotation
								End Site
								{
									OFFSET 0.000000 0.000000 0.000000
								}
							}
						}
					}
				}
			}
		}
	}
}
MOTION
Frames: 6
Frame Time: 0.050000
0.000000 0.940711 0.000000 -0.318394 -2.692148 2.659989 3.599595 0.159899 3.300811 -3.353278 0.417015 -6.175668 4.571565 11.088592 7.667492 0.000000 0.000000 0.000000 -4.950204 0.147208 0.524083 3.446989 -0.352966 -1.351813 -3.266289 -10.450722 7.763409 0.000000 0.000000 0.000000 -1.225895 0.016617 0.185271 5.129251 -0.917896 -20.599789 -0.501504 0.773862 27.664672 -0.736385 1.990835 -29.044223 0.000000 0.000000 0.000000 -32.153932 0.700501 -2.242114 -47.645237 -6.760442 -5.413252 -3.523528 -22.416147 1.878564 0.000000 0.000000 0.000000 24.497047 5.495317 1.540655 51.205460 6.353112 -4.607337 -3.176951 23.812241 0.423787 0.000000 0.000000 0.000000 
0.000036 0.940249 0.000796 -0.411270 -4.220548 3.391481 3.562068 0.157659 3.098813 -3.180072 0.424783 -6.805906 4.900871 11.522919 7.217987 0.000000 0.000000 0.000000 -5.028444 0.245600 -0.770661 3.428702 -0.332605 -0.798784 -3.097243 -10.112025 7.371054 0.000000 0.000000 0.000000 -1.028953 0.055443 -0.974392 4.859482 -0.880438 -20.451598 -0.571092 1.739722 27.932105 -0.651256 1.959748 -29.170435 0.000000 0.000000 0.000000 -31.981972 1.550945 -2.792549 -48.185934 -6.576154 -5.561103 -3.599103 -22.940796 1.968850 0.000000 0.000000 0.000000 24.122812 5.325369 1.447955 52.373927 5.596667 -5.025801 -2.707036 25.942656 0.587036 0.000000 0.000000 0.000000 
0.000065 0.940184 0.001185 -0.144745 -4.100406 3.658628 3.409711 0.093837 2.102794 -3.851971 0.457961 -5.315908 5.487033 12.480064 6.499520 0.000000 0.000000 0.000000 -5.433540 0.293979 -1.394337 3.416417 -0.328292 -0.423226 -3.289789 -10.604710 7.777969 0.000000 0.000000 0.000000 -0.711121 0.058798 -1.156005 4.058655 -0.662513 -20.441855 -0.440310 1.049365 27.993816 -1.249359 2.192601 -29.643302 0.000000 0.000000 0.000000 -31.075890 1.387735 -2.321628 -48.564512 -6.953906 -5.512824 -3.640823 -22.811152 1.981935 0.000000 0.000000 0.000000 24.013835 5.936892 1.587808 52.375728 5.809348 -4.859703 -2.919788 25.539826 0.492484 0.000000 0.000000 0.000000 
-0.000069 0.939739 0.001485 -0.035194 -4.739531 3.900599 3.279612 0.096577 2.037281 -4.024060 0.476324 -5.191885 5.953197 13.234601 5.860903 0.000000 0.000000 0.000000 -5.626676 0.346839 -2.128741 3.462288 -0.323692 -0.121056 -3.446117 -11.026865 8.012899 0.000000 0.000000 0.000000 -0.996144 0.074321 -1.459888 4.453958 -0.743538 -20.904233 -0.586560 1.248351 28.437156 -1.491755 2.283381 -29.528387 0.000000 0.000000 0.000000 -31.579688 1.881301 -2.593157 -48.423617 -6.639200 -5.685691 -4.287840 -23.565135 2.212834 0.000000 0.000000 0.000000 24.071031 6.320879 1.757533 52.577163 5.145497 -5.172267 -2.698135 27.180025 0.580017 0.000000 0.000000 0.000000 
-0.000320 0.940126 0.001669 0.042455 -4.714638 3.798837 3.411367 0.080663 1.841678 -4.285378 0.496411 -4.765682 6.000655 13.319697 5.847772 0.000000 0.000000 0.000000 -5.694822 0.343861 -2.059065 3.195280 -0.301621 -0.269133 -3.193380 -10.551487 8.119937 0.000000 0.000000 0.000000 -0.925334 0.058698 -1.053303 4.402269 -0.754639 -20.572972 -0.601186 1.214297 27.874222 -1.756227 2.430216 -29.674903 0.000000 0.000000 0.000000 -31.086872 1.702952 -2.446161 -48.696621 -6.346600 -5.754337 -4.997839 -24.612440 2.472256 0.000000 0.000000 0.000000 24.399355 6.207075 1.645245 52.064402 5.138353 -5.059134 -2.287817 27.491807 0.664985 0.000000 0.000000 0.000000 
-0.000505 0.940360 0.001845 0.164721 -4.522234 3.969856 3.351812 0.074261 1.770897 -4.461325 0.508168 -4.727274 5.821890 12.950776 5.390096 0.000000 0.000000 0.000000 -5.883945 0.356750 -2.216843 3.100038 -0.294186 -0.258676 -3.216362 -10.585111 8.127661 0.000000 0.000000 0.000000 -1.271923 0.067574 -1.164162 4.384618 -0.724748 -20.848891 -0.447343 0.944196 28.111533 -1.896808 2.476335 -29.603891 0.000000 0.000000 0.000000 -30.746631 1.844143 -2.443696 -48.856733 -6.233645 -5.844617 -5.939920 -25.588244 2.810554 0.000000 0.000000 0.000000 24.173585 6.252219 1.643171 52.011039 4.879631 -5.177175 -1.762427 28.274198 0.803332 0.000000 0.000000 0.000000 
